<svg width="75" height="75" viewBox="0 0 75 75" fill="none" xmlns="http://www.w3.org/2000/svg">
<path d="M50.1628 21.3914L51.0358 19.7826V19.7833C51.3403 19.2278 51.1387 18.53 50.5843 18.225C50.0298 17.9192 49.3333 18.1219 49.0288 18.6773L48.1355 20.3163V20.3156C47.8079 20.23 47.4705 20.1858 47.1316 20.1851H36.7745C35.5725 20.1795 34.4182 20.6536 33.5648 21.5029C32.7121 22.3514 32.2312 23.505 32.2284 24.7091V35.0646C32.2284 36.5984 33.0076 38.0269 34.2956 38.8551L30.7232 44.3043C30.3879 43.7874 29.942 43.3512 29.4183 43.0272C28.4873 42.4185 27.3714 42.1583 26.2675 42.2937C25.8894 41.5601 25.3252 40.9387 24.6314 40.4942C23.9027 40.0236 23.0606 39.7606 22.1945 39.7326C21.3286 39.7038 20.471 39.9114 19.7135 40.3329C19.4608 40.0678 19.1815 39.8287 18.8805 39.6197C17.8927 38.964 16.695 38.7038 15.5244 38.8903C14.3539 39.0762 13.2954 39.6954 12.5583 40.6247C12.4679 40.706 12.3874 40.7972 12.3174 40.896L4.86062 52.2368C3.41992 54.4172 2.90614 57.0828 3.43394 59.644C3.96107 62.2045 5.48645 64.4494 7.67068 65.8799L14.9967 70.7357C17.5056 72.3747 19.6834 72.1432 22.0216 71.8417H22.0223C23.5295 71.6488 25.05 71.5815 26.5683 71.6411C30.9542 71.9826 36.0323 74.6574 36.1022 74.7275C36.2681 74.8095 36.4494 74.8572 36.6342 74.8684H36.7449C37.006 74.8684 38.913 74.4967 39.7558 71.641C40.8199 68.1927 37.7488 65.046 34.166 63.4674H34.1653C32.7183 62.7927 31.19 62.3095 29.6192 62.0297L44.3719 39.5683H47.1119C48.3097 39.5683 49.4578 39.0914 50.3047 38.2428C51.1518 37.3949 51.6278 36.2441 51.6278 35.0443V24.6888C51.6285 23.4307 51.0958 22.2321 50.1626 21.3906L50.1628 21.3914ZM34.4965 35.045V24.6896C34.4965 23.4272 35.5151 22.4027 36.7745 22.3969H46.9811L42.0333 31.3547L38.6815 26.1567V26.1574C38.3329 25.6293 37.6223 25.4856 37.0959 25.8355C36.5694 26.1855 36.4259 26.8966 36.7745 27.424L39.6846 31.9179H39.6853C38.9376 32.2419 38.2999 32.7762 37.8484 33.4565L35.5403 36.9456V36.9449C34.8991 36.5248 34.5084 35.8123 34.4965 35.045ZM43.2379 37.2267L26.7792 62.2608V62.2601C26.5796 62.5561 26.5278 62.9271 26.6384 63.2658C26.7771 63.5905 27.0417 63.8444 27.3714 63.9692C27.783 64.0695 28.2142 64.1403 28.6462 64.2006H28.6455C30.2416 64.3781 31.7935 64.8339 33.2322 65.5479C35.3702 66.4827 38.2501 68.7247 37.618 71.0067V71.0074C37.4682 71.5874 37.1378 72.105 36.6744 72.4851C33.5346 70.8777 30.138 69.8328 26.6385 69.3987H25.2637C23.9189 69.3987 22.7547 69.5292 21.6809 69.6302C19.473 69.9016 18.0378 70.0727 16.1911 68.8658L8.86509 64.0401C7.17939 62.925 6.00756 61.183 5.60774 59.1997C5.20871 57.2164 5.61544 55.1553 6.73762 53.4735L14.2245 42.0823L13.2907 41.4988L14.2946 42.0416V42.0423C15.1066 41.0247 16.5557 40.7898 17.6463 41.4988C17.9964 41.7379 18.282 42.0591 18.4794 42.4343C18.6488 42.7408 18.9407 42.9603 19.2823 43.0374C19.6513 43.1027 20.0286 42.9778 20.2855 42.7057C20.7041 42.313 21.2397 42.0703 21.8102 42.0164C22.3801 41.9617 22.9527 42.0977 23.4371 42.4042C23.9747 42.7499 24.3598 43.2899 24.511 43.912C24.5726 44.2339 24.7805 44.5088 25.0731 44.656C25.3475 44.8187 25.6828 44.8412 25.9762 44.7164C26.7252 44.4457 27.5569 44.5424 28.224 44.9779C28.8821 45.4184 29.3 46.1379 29.3581 46.9282C29.3987 47.4072 29.7361 47.8083 30.2009 47.9304C30.6651 48.0524 31.1558 47.8686 31.4253 47.471L39.7551 34.7627C40.0883 34.2634 40.6105 33.9226 41.2007 33.8181C41.7796 33.7199 42.3725 33.8693 42.836 34.2298C43.7187 34.9774 43.8923 36.2727 43.2378 37.2264L43.2379 37.2267ZM49.3899 35.045C49.3899 36.3053 48.3699 37.3271 47.1119 37.3271H45.6362C45.9485 36.4385 45.9723 35.4736 45.7034 34.5704C45.4346 33.6678 44.8879 32.8725 44.1409 32.3002L49.0286 23.4526C49.2827 23.8151 49.4227 24.2465 49.4297 24.6897L49.3899 35.045Z" fill="black"/>
<path d="M38.4516 13.8008H45.3758C46.2803 13.7979 47.1469 13.4368 47.786 12.7965C48.4251 12.1562 48.7857 11.288 48.7885 10.3819V3.47547C48.7829 2.57291 48.421 1.7096 47.7811 1.07493C47.1413 0.439548 46.2767 0.0847007 45.3758 0.0868013H38.4516C37.5541 0.0868013 36.6938 0.443767 36.0595 1.07913C35.4252 1.71452 35.0689 2.57641 35.0689 3.47554V10.3827V10.382C35.064 11.2853 35.4175 12.1535 36.0518 12.7946C36.6867 13.4363 37.5499 13.7981 38.4516 13.801L38.4516 13.8008ZM37.3476 3.47544C37.342 2.85689 37.8342 2.34985 38.4516 2.33933H45.3758C45.9933 2.34985 46.4854 2.85689 46.4798 3.47544V10.3826V10.3819C46.4826 10.6842 46.3643 10.9752 46.1508 11.1884C45.938 11.4023 45.6474 11.5208 45.3457 11.518H38.4516C38.1499 11.5208 37.8594 11.4023 37.6466 11.1884C37.4331 10.9752 37.3148 10.6842 37.3176 10.3819L37.3476 3.47544Z" fill="black"/>
<path d="M45.3761 45.9425H43.57C42.9575 45.9642 42.471 46.465 42.4661 47.0786C42.4633 47.3809 42.5823 47.6712 42.7951 47.8851C43.0086 48.0983 43.2984 48.2175 43.6001 48.2147H45.4062C46.0152 48.2421 46.492 48.7505 46.4801 49.3606V56.2678C46.4801 56.8955 45.9726 57.4039 45.346 57.4039H38.4519C38.1005 57.3969 37.7701 57.2349 37.5482 56.9614C37.3781 56.6949 37.1036 56.5119 36.7921 56.4579C36.4799 56.4046 36.1607 56.4845 35.9107 56.6795C35.6615 56.8737 35.5054 57.1648 35.4809 57.4804C35.4564 57.7967 35.5656 58.108 35.7819 58.3388C36.4085 59.1852 37.3997 59.6818 38.4518 59.6761H45.376C46.2791 59.6733 47.1436 59.3136 47.7828 58.6754C48.422 58.0372 48.7832 57.1718 48.7888 56.2678V49.3607C48.786 48.4553 48.4255 47.5871 47.7863 46.9468C47.1472 46.3058 46.2805 45.9453 45.3761 45.9425Z" fill="black"/>
<path d="M15.6003 36.7235H22.4944C23.3911 36.7207 24.2494 36.363 24.8829 35.7283C25.5171 35.0929 25.8741 34.2331 25.877 33.3355V26.4179C25.877 25.5202 25.5199 24.6597 24.8857 24.0258C24.2508 23.3925 23.3904 23.0377 22.4943 23.0405H15.6002C14.7 23.0349 13.8354 23.3876 13.1956 24.0209C12.5557 24.6549 12.1931 25.5168 12.1875 26.418V33.3554C12.2036 34.2523 12.5697 35.1079 13.2075 35.737C13.8452 36.3668 14.7042 36.721 15.6003 36.7238L15.6003 36.7235ZM14.4662 26.4179C14.4767 25.8001 14.9828 25.3063 15.6003 25.3119H22.4944C23.1069 25.3176 23.6074 25.805 23.6284 26.4179V33.3552C23.5927 33.9626 23.1013 34.4416 22.4944 34.4612H15.6003C14.9744 34.4507 14.4711 33.9423 14.4662 33.3153V26.4179Z" fill="black"/>
<path d="M15.6002 13.8007H22.4943C23.396 13.7979 24.2591 13.436 24.8941 12.7943C25.5284 12.1533 25.8819 11.2851 25.877 10.3818V3.4753C25.877 2.57623 25.5207 1.71433 24.8864 1.07889C24.2522 0.443505 23.3919 0.0865572 22.4943 0.0865572H15.6002C14.6993 0.0844532 13.8347 0.439304 13.1949 1.07469C12.555 1.70938 12.1931 2.57268 12.1875 3.47523V10.3824V10.3817C12.1903 11.2878 12.5508 12.156 13.19 12.7963C13.8291 13.4365 14.6958 13.7977 15.6002 13.8005L15.6002 13.8007ZM14.4662 3.47539C14.4634 3.17313 14.5817 2.88279 14.7952 2.66889C15.008 2.45499 15.2985 2.33647 15.6002 2.33929H22.4943C23.1188 2.34419 23.6235 2.84984 23.6284 3.47539V10.3826V10.3819C23.6235 11.0074 23.1187 11.5131 22.4943 11.518H15.6002C15.2985 11.5208 15.008 11.4023 14.7952 11.1884C14.5817 10.9752 14.4633 10.6841 14.4662 10.3819V3.47539Z" fill="black"/>
<path d="M68.2881 23.0197H61.3631C60.465 23.0225 59.6046 23.3816 58.971 24.0184C58.3368 24.6551 57.9805 25.5185 57.9805 26.4175V33.3548C57.991 34.2504 58.3508 35.106 58.9829 35.7392C59.6151 36.3725 60.4691 36.7329 61.363 36.7427H68.288C69.184 36.7406 70.0423 36.3823 70.6765 35.7476C71.31 35.1129 71.667 34.2524 71.6699 33.3548V26.4174C71.6748 25.5163 71.3205 24.6509 70.6856 24.0126C70.0507 23.3744 69.1875 23.0167 68.2879 23.0195L68.2881 23.0197ZM69.4319 33.3351C69.4011 33.9509 68.9034 34.4404 68.2881 34.4607H61.3631C60.7492 34.4341 60.2641 33.9306 60.2592 33.3148V26.4175C60.2648 25.8095 60.7555 25.3172 61.3631 25.3115H68.2881C68.902 25.3165 69.4053 25.8032 69.4319 26.4175V33.3351Z" fill="black"/>
<path d="M68.2884 0.0868329H61.3635C60.4681 0.0924433 59.6106 0.450801 58.9778 1.08549C58.3443 1.71945 57.9866 2.57856 57.981 3.47543V10.3826V10.3819C57.9838 11.2831 58.3401 12.1464 58.9729 12.786C59.6058 13.4257 60.4647 13.7903 61.3636 13.8008H68.2885C69.1895 13.798 70.0526 13.4361 70.6876 12.7944C71.3219 12.1535 71.6754 11.2853 71.6705 10.3819V3.47541C71.6705 2.57635 71.3142 1.71444 70.6799 1.079C70.0457 0.443617 69.1854 0.0866699 68.2885 0.0866699L68.2884 0.0868329ZM69.4323 10.382C69.4211 11.009 68.9135 11.5132 68.2884 11.5181H61.3635C60.7467 11.5076 60.2539 11.0005 60.2595 10.382V3.47552C60.2539 2.85698 60.7467 2.34994 61.3635 2.33942H68.2884C68.9135 2.34433 69.4211 2.84856 69.4323 3.47552V10.382Z" fill="black"/>
<path d="M68.288 45.9425H61.3631C60.4643 45.953 59.6053 46.3177 58.9724 46.9573C58.3396 47.5969 57.9833 48.4602 57.9805 49.3607V56.2679C57.9861 57.1669 58.3431 58.0274 58.9759 58.665C59.6088 59.3026 60.4656 59.6658 61.363 59.6763H68.2879C69.1875 59.6735 70.0492 59.313 70.6835 58.6741C71.3177 58.0345 71.6726 57.1691 71.6698 56.268V49.3608C71.6747 48.4583 71.3212 47.59 70.687 46.9483C70.052 46.3073 69.1889 45.9454 68.2879 45.9426L68.288 45.9425ZM69.4319 56.2678C69.4158 56.8927 68.9111 57.3934 68.288 57.4039H61.3631C60.7464 57.3927 60.2536 56.8857 60.2591 56.2678V49.3606C60.2535 49.0619 60.367 48.7737 60.5742 48.5583C60.7807 48.3437 61.0649 48.2196 61.3631 48.2147H68.288C68.9174 48.2203 69.4263 48.7302 69.4319 49.3606L69.4319 56.2678Z" fill="black"/>
</svg>
