<svg width="75" height="75" viewBox="0 0 75 75" fill="none" xmlns="http://www.w3.org/2000/svg">
<g clip-path="url(#clip0_50_1187)">
<path d="M35.155 14.3223C36.002 14.3218 36.8009 13.9273 37.3162 13.255C37.8315 12.5822 38.0047 11.7086 37.785 10.8904C37.5653 10.0722 36.9777 9.40257 36.1946 9.07873C35.4119 8.75489 34.5231 8.81401 33.7896 9.23777C33.0556 9.66154 32.5612 10.4028 32.4508 11.2425C32.341 12.0827 32.6277 12.926 33.2267 13.5251C33.7378 14.0367 34.4315 14.3238 35.155 14.3223ZM34.6695 11.1116C34.9008 10.8804 35.2633 10.8448 35.5353 11.0269C35.8074 11.2089 35.9131 11.5573 35.7875 11.8597C35.6625 12.1621 35.3413 12.3337 35.02 12.2699C34.6993 12.2061 34.4681 11.9246 34.4681 11.5971C34.4676 11.415 34.5398 11.2398 34.6695 11.1116ZM9.7347 33.1616C9.22305 33.6727 8.93584 34.3664 8.93584 35.0895C8.93584 35.8125 9.22306 36.5057 9.73418 37.0174C10.2458 37.5285 10.939 37.8157 11.6621 37.8157C12.3851 37.8157 13.0782 37.5285 13.59 37.0174C14.1011 36.5058 14.3883 35.8126 14.3883 35.0895C14.3883 34.3665 14.1011 33.6728 13.5895 33.1616C13.0809 32.6452 12.3867 32.3549 11.6621 32.3549C10.9375 32.3549 10.2432 32.6453 9.7347 33.1616ZM12.147 35.5745C11.9158 35.8052 11.5533 35.8408 11.2817 35.6587C11.0102 35.4766 10.9051 35.1282 11.0306 34.8264C11.1557 34.5245 11.4769 34.3534 11.7976 34.4172C12.1177 34.4811 12.3485 34.763 12.3485 35.0895C12.349 35.2716 12.2768 35.4463 12.147 35.5745ZM33.2266 56.6535H33.2261C32.7149 57.1646 32.4277 57.8578 32.4277 58.5808C32.4277 59.3038 32.7144 59.9975 33.2261 60.5087C33.7372 61.0199 34.4304 61.3071 35.1534 61.3071C35.8764 61.3071 36.5701 61.0199 37.0813 60.5087C37.5924 59.9976 37.8797 59.3039 37.8797 58.5808C37.8797 57.8578 37.5924 57.1647 37.0813 56.6535C36.5697 56.1434 35.8765 55.8567 35.154 55.8572C34.4315 55.8572 33.7383 56.1439 33.2266 56.654L33.2266 56.6535ZM35.6394 59.0669C35.4433 59.2631 35.1477 59.3216 34.8913 59.2155C34.6345 59.1092 34.467 58.8592 34.467 58.5814C34.467 58.3517 34.5816 58.1372 34.772 58.0101C34.963 57.8824 35.2047 57.8584 35.4166 57.9463C35.629 58.0342 35.7828 58.222 35.8278 58.4469C35.8722 58.6719 35.8016 58.9047 35.6394 59.0669ZM58.6476 37.8151C59.4946 37.814 60.2929 37.4196 60.8077 36.7478C61.3225 36.0756 61.4956 35.2024 61.2759 34.3847C61.0562 33.567 60.4687 32.8978 59.6866 32.574C58.9039 32.2506 58.0156 32.3092 57.2827 32.733C56.5498 33.1568 56.0554 33.897 55.945 34.7362C55.8346 35.5758 56.1213 36.4186 56.7198 37.0171C57.2309 37.5293 57.9246 37.8165 58.6477 37.8149L58.6476 37.8151ZM58.1621 34.605C58.2897 34.471 58.466 34.3941 58.6512 34.3915C58.8364 34.3894 59.0143 34.4621 59.1451 34.5929C59.2764 34.7237 59.3486 34.9021 59.3465 35.0868C59.3444 35.272 59.2675 35.4483 59.1336 35.5759C59.0059 35.7099 58.8296 35.7868 58.6444 35.7888C58.4592 35.7915 58.2814 35.7187 58.1506 35.5879C58.0193 35.4572 57.9471 35.2788 57.9492 35.0941C57.9512 34.9089 58.0281 34.7326 58.1621 34.605ZM22.2076 20.6992C22.6057 21.0978 22.6057 21.7439 22.2071 22.142C21.8084 22.5401 21.1623 22.5401 20.7643 22.1414L18.3337 19.7098V19.7104C18.1339 19.521 18.0188 19.2589 18.0151 18.9837C18.0115 18.7085 18.1187 18.4433 18.3133 18.2486C18.5079 18.0535 18.7732 17.9457 19.0484 17.9494C19.3236 17.9531 19.5857 18.0682 19.775 18.2675L22.2076 20.6992ZM22.2076 48.0367V48.0372C22.6052 48.4358 22.6052 49.0809 22.2076 49.4796L19.776 51.9112C19.3763 52.3004 18.7375 52.2962 18.3431 51.9013C17.9486 51.5068 17.9444 50.8685 18.3337 50.4689L20.7653 48.0373C21.1634 47.6391 21.809 47.6391 22.2077 48.0373L22.2076 48.0367ZM49.6897 20.5545V20.555C49.2916 20.1564 49.2916 19.5108 49.6897 19.1126L52.4034 16.399H52.4029C52.8057 16.0296 53.4277 16.0432 53.8144 16.4293C54.2004 16.8159 54.2135 17.4379 53.8437 17.8408L51.13 20.5544L51.1305 20.5539C50.7319 20.952 50.0863 20.952 49.6881 20.5539L49.6897 20.5545ZM48.7209 36.4505C49.2744 36.4437 49.7211 35.9969 49.7279 35.4434C49.7347 34.8899 49.2995 34.4321 48.746 34.4118L38.7321 34.1591H38.7327C38.402 32.8951 37.4305 31.899 36.1754 31.537V19.4521C36.1827 19.1764 36.0792 18.9096 35.8872 18.7124C35.6946 18.5151 35.431 18.4037 35.1558 18.4037C34.8801 18.4037 34.6164 18.5151 34.4244 18.7124C34.2324 18.9096 34.1283 19.1764 34.1362 19.4521V31.537C32.8874 31.8964 31.919 32.8851 31.5863 34.1418C31.2536 35.3979 31.6057 36.7367 32.5133 37.6668C33.421 38.597 34.7503 38.9815 36.0149 38.6801C37.2789 38.3783 38.2912 37.4345 38.6814 36.1951L48.6942 36.4478L48.7209 36.4505ZM36.3262 36.259C35.7669 36.8188 34.8906 36.9056 34.2325 36.4662C33.5743 36.0267 33.3185 35.1839 33.6214 34.4531C33.9243 33.7217 34.7012 33.3069 35.477 33.4617C36.2528 33.6166 36.8116 34.2977 36.811 35.0887C36.8121 35.5281 36.6374 35.9493 36.3262 36.259ZM68.3163 43.8767V43.8773C70.2421 36.6001 69.7184 28.892 66.8264 21.9425C63.9343 14.9929 58.8357 9.18843 52.3166 5.42504C45.7969 1.66192 38.2206 0.149461 30.7567 1.12098C23.2924 2.09248 16.3554 5.49401 11.017 10.8004C5.67875 16.1073 2.23532 23.0235 1.2188 30.4825C0.202309 37.9408 1.66924 45.5267 5.39309 52.0678C9.11697 58.6094 14.8905 63.7437 21.8234 66.6767C28.7553 69.6106 36.4605 70.1803 43.7489 68.299C46.9072 71.9025 51.4152 74.0391 56.2037 74.2039C60.9927 74.3682 65.6363 72.546 69.0347 69.1679C72.4326 65.7899 74.2835 61.1574 74.1476 56.3679C74.0121 51.5783 71.9022 47.0577 68.3181 43.8774L68.3163 43.8767ZM12.3422 57.9004L12.3428 57.9009C7.0191 52.5767 3.72526 45.5586 3.03205 38.0608C2.33886 30.5634 4.28919 23.0608 8.54669 16.8491C12.8036 10.6393 19.0983 6.11343 26.3404 4.05629C33.583 1.99875 41.3177 2.53968 48.2029 5.58442C55.0887 8.62968 60.6929 13.9874 64.044 20.7291C67.3953 27.4716 68.2831 35.1733 66.553 42.5005C65.7489 41.9512 64.9004 41.4704 64.0158 41.0629C65.0092 36.2786 64.7963 31.3223 63.3963 26.6401C61.9964 21.958 59.4533 17.6988 55.9962 14.2449C51.7294 9.98062 46.2571 7.12835 40.3172 6.07259C34.3783 5.01685 28.2579 5.80944 22.7833 8.34201C17.309 10.8751 12.7428 15.0269 9.70276 20.237C6.66218 25.4471 5.29356 31.4645 5.78173 37.4776C6.26931 43.4904 8.59062 49.2084 12.4316 53.8598C16.2721 58.5116 21.4476 61.8724 27.2588 63.4895C31.7229 64.7205 36.4131 64.89 40.9543 63.9855C41.3556 64.8722 41.8311 65.7234 42.3752 66.5306C37.0474 67.7465 31.4987 67.5926 26.2462 66.0833C20.9936 64.5736 16.2098 61.7584 12.3404 57.8991L12.3422 57.9004ZM40.2195 62.0517C34.4532 63.1341 28.4913 62.3394 23.2105 59.7842C17.9292 57.2292 13.6059 53.048 10.876 47.8547C8.14559 42.6619 7.15264 36.7298 8.04206 30.9301C8.93148 25.1305 11.6571 19.7696 15.8182 15.6342C19.9794 11.498 25.357 8.80488 31.1611 7.95001C36.9655 7.09569 42.8913 8.12422 48.0682 10.8855C53.2448 13.6467 57.3998 17.9952 59.923 23.2917C62.4468 28.5887 63.2054 34.5548 62.0879 40.314C58.0282 39.0145 53.6326 39.253 49.7371 40.9847C45.8422 42.7164 42.7195 45.8202 40.9648 49.7046C39.2096 53.5896 38.9443 57.9841 40.2198 62.0516L40.2195 62.0517ZM56.7851 72.1701C52.7212 72.1701 48.8237 70.5556 45.9495 67.6819C43.0758 64.8082 41.4613 60.9106 41.4613 56.8463C41.4613 52.7823 43.0758 48.8849 45.9495 46.0112C48.8237 43.1375 52.7212 41.523 56.7851 41.523C60.849 41.523 64.747 43.1375 67.6207 46.0112C70.4944 48.8849 72.1089 52.7825 72.1089 56.8463C72.1042 60.9091 70.4887 64.804 67.616 67.6772C64.7429 70.5498 60.848 72.1659 56.7851 72.1701ZM56.7851 44.104C53.4055 44.104 50.1645 45.4464 47.7748 47.8362C45.3851 50.226 44.0426 53.467 44.0426 56.8465C44.0426 60.2261 45.385 63.4677 47.7748 65.8574C50.1646 68.2471 53.4055 69.5896 56.7851 69.5896C60.1646 69.5896 63.4063 68.2472 65.7959 65.8574C68.1852 63.4676 69.5281 60.2261 69.5281 56.8465C69.5239 53.4684 68.18 50.2296 65.7913 47.8404C63.4025 45.4516 60.1636 44.1076 56.7851 44.104ZM56.7851 67.5509C53.9465 67.5509 51.224 66.423 49.2165 64.4156C47.2092 62.4083 46.0818 59.6863 46.0813 56.8471C46.0813 54.0084 47.2092 51.2859 49.216 49.2785C51.2233 47.2712 53.9458 46.1432 56.7846 46.1432C59.6232 46.1432 62.3457 47.2706 64.3531 49.278C66.361 51.2847 67.4884 54.0072 67.4889 56.846C67.4858 59.6841 66.3568 62.4046 64.3505 64.4113C62.3437 66.4181 59.6232 67.5466 56.7851 67.5498V67.5509ZM55.9015 52.8281V54.8146C55.9015 55.3838 55.9637 55.4716 57.0242 55.7264C57.9622 55.953 59.7085 56.373 59.7085 58.6216V60.608V60.6075C59.7075 61.2033 59.5249 61.7841 59.1848 62.2733C58.8442 62.7624 58.3635 63.136 57.8052 63.3437V64.6735C57.8052 65.2364 57.3485 65.6932 56.7851 65.6932C56.2216 65.6932 55.7649 65.2364 55.7649 64.6735V63.3437C55.2072 63.1354 54.7259 62.7619 54.3858 62.2733C54.0458 61.7841 53.8627 61.2029 53.8616 60.6075C53.8616 60.044 54.3183 59.5873 54.8818 59.5873C55.4452 59.5873 55.9014 60.044 55.9014 60.6075C55.8946 60.8466 55.9846 61.0783 56.151 61.2499C56.3173 61.4215 56.5465 61.5183 56.7856 61.5183C57.0247 61.5183 57.2533 61.4215 57.4202 61.2499C57.5865 61.0783 57.6765 60.8466 57.6692 60.6075V58.621C57.6692 58.0518 57.6069 57.964 56.5465 57.7092C55.6079 57.4832 53.8622 57.0625 53.8622 54.814L53.8627 52.8281C53.8637 52.2323 54.0463 51.6516 54.3864 51.1623C54.727 50.6732 55.2077 50.2997 55.766 50.0914V49.0179C55.766 48.4545 56.2227 47.9978 56.7861 47.9978C57.349 47.9978 57.8058 48.4545 57.8058 49.0179V50.0914C58.364 50.2997 58.8453 50.6732 59.1854 51.1623C59.5254 51.651 59.7085 52.2322 59.7096 52.8281C59.7169 53.1033 59.6128 53.3701 59.4208 53.5674C59.2288 53.7651 58.9651 53.8765 58.6899 53.8765C58.4142 53.8765 58.1506 53.7651 57.9586 53.5674C57.7666 53.3701 57.6625 53.1033 57.6703 52.8281C57.6771 52.5891 57.5877 52.3573 57.4208 52.1857C57.2544 52.0141 57.0253 51.9173 56.7862 51.9173C56.5471 51.9173 56.3185 52.0141 56.1521 52.1857C55.9852 52.3573 55.8952 52.5891 55.9026 52.8281L55.9015 52.8281Z" fill="black"/>
</g>
<defs>
<clipPath id="clip0_50_1187">
<rect width="75" height="75" fill="white"/>
</clipPath>
</defs>
</svg>
