<svg width="50" height="50" viewBox="0 0 50 50" fill="none" xmlns="http://www.w3.org/2000/svg">
<path d="M3.86491 42.2457C2.94266 42.2457 2.19824 42.9901 2.19824 43.9124C2.19824 44.8346 2.94266 45.579 3.86491 45.579H42.1982C45.2648 45.579 47.7537 43.0902 47.7537 40.0236C47.7537 38.2014 46.8538 36.5902 45.4981 35.579H46.0873C47.0096 35.579 47.754 34.8346 47.754 33.9124C47.754 32.9901 47.0096 32.2457 46.0873 32.2457H45.254C44.9207 31.79 44.6986 30.9567 44.6986 30.0236C44.6986 29.0902 44.9207 28.2568 45.254 27.8015H46.0873C47.0096 27.8015 47.754 27.0571 47.754 26.1348C47.754 25.2126 47.0096 24.4682 46.0873 24.4682H45.4984C46.8653 23.457 47.754 21.8458 47.754 20.0236C47.754 18.5347 47.1763 17.1348 46.1317 16.1013C45.9427 15.9012 45.7206 15.7457 45.5093 15.579H46.0874C47.0096 15.579 47.7541 14.8346 47.7541 13.9123C47.7541 12.9901 47.0096 12.2457 46.0874 12.2457H45.2541C44.9207 11.7899 44.6986 10.9566 44.6986 10.0236C44.6986 9.09016 44.9207 8.25681 45.2541 7.80147H46.0874C47.0096 7.80147 47.7541 7.05705 47.7541 6.13481C47.7541 5.21256 47.0096 4.46814 46.0874 4.46814H7.75405C4.68748 4.46814 2.19862 6.957 2.19862 10.0236C2.19862 11.8458 3.09855 13.457 4.45424 14.4681H3.86496C2.94271 14.4681 2.19829 15.2126 2.19829 16.1348C2.19829 17.0571 2.94271 17.8015 3.86496 17.8015H4.69829C5.03162 18.2572 5.25372 19.0905 5.25372 20.0236C5.25372 20.957 5.03162 21.7903 4.69829 22.2457H3.86496C2.94271 22.2457 2.19829 22.9901 2.19829 23.9123C2.19829 24.8346 2.94271 25.579 3.86496 25.579H4.45387C3.08701 26.5901 2.19825 28.2014 2.19825 30.0236C2.19825 31.5124 2.776 32.9123 3.82063 33.9459C4.00962 34.146 4.23172 34.3015 4.44303 34.4682H3.86491C2.94266 34.4682 2.19824 35.2126 2.19824 36.1348C2.19824 37.0571 2.94266 37.8015 3.86491 37.8015H4.69824C5.03158 38.2572 5.25367 39.0906 5.25367 40.0236C5.25367 40.957 5.03158 41.7904 4.69824 42.2457H3.86491ZM46.0878 25.579C46.3988 25.579 46.6432 25.8235 46.6432 26.1345C46.6432 26.4455 46.3988 26.6899 46.0878 26.6899H36.6432V25.5787H42.1986L46.0878 25.579ZM43.9765 32.2457H7.75462C6.53253 32.2457 5.53253 31.2457 5.53253 30.0236C5.53253 29.4347 5.76579 28.8569 6.17687 28.4459C6.59912 28.0236 7.15459 27.8015 7.75459 27.8015H26.6432V30.5791C26.6432 30.79 26.7656 30.979 26.9542 31.0791C27.1432 31.168 27.3653 31.1568 27.5319 31.0236L31.6432 27.9347L35.7544 31.0236C35.8545 31.1014 35.9653 31.1349 36.0877 31.1349C36.1766 31.1349 36.2544 31.1126 36.3321 31.0795C36.5211 30.9905 36.6432 30.7904 36.6432 30.5795V27.8015H43.9765C43.7209 28.4128 43.5877 29.1903 43.5877 30.0236C43.5877 30.857 43.7321 31.6348 43.9765 32.2457ZM5.97653 17.8019H42.1984C43.4205 17.8019 44.4205 18.8019 44.4205 20.024C44.4205 20.6241 44.1873 21.1795 43.7762 21.6017C43.3651 22.0239 42.7985 22.246 42.1985 22.246H36.643V20.5794H42.7543C43.0653 20.5794 43.3097 20.335 43.3097 20.0239C43.3097 19.7129 43.0653 19.4685 42.7543 19.4685H12.7543C12.4433 19.4685 12.1989 19.7129 12.1989 20.0239C12.1985 20.335 12.4429 20.5794 12.7543 20.5794H26.6429V22.246H5.97619C6.23177 21.6348 6.36495 20.8573 6.36495 20.0239C6.36495 19.1906 6.2206 18.4127 5.97619 17.8019L5.97653 17.8019ZM35.5318 20.5794V29.4682L31.9763 26.8015C31.7762 26.6572 31.5098 26.6572 31.3097 26.8015L27.7542 29.4686V20.5798L35.5318 20.5794ZM3.30986 10.0242C3.30986 7.56846 5.29872 5.57961 7.75443 5.57961H46.0878C46.3988 5.57961 46.6432 5.82402 46.6432 6.13503C46.6432 6.44642 46.3988 6.69083 46.0878 6.69083H7.75443C5.9211 6.69083 4.4211 8.19083 4.4211 10.0242C4.4211 11.8575 5.9211 13.3575 7.75443 13.3575H46.0878C46.3988 13.3575 46.6432 13.6019 46.6432 13.9129C46.6432 14.2239 46.3988 14.4684 46.0878 14.4684H7.75443C5.29872 14.4687 3.30986 12.4799 3.30986 10.0242ZM43.9765 12.2463H7.75462C6.53253 12.2463 5.53253 11.2463 5.53253 10.0242C5.53253 8.80208 6.53253 7.80208 7.75462 7.80208H43.9765C43.721 8.41332 43.5878 9.19084 43.5878 10.0242C43.5878 10.8575 43.7321 11.6354 43.9765 12.2463ZM4.97653 16.6908H3.86529C3.55428 16.6908 3.30986 16.4464 3.30986 16.1354C3.30986 15.8244 3.55428 15.58 3.86529 15.58H42.1986C43.3988 15.58 44.5097 16.0465 45.343 16.891C46.1875 17.7244 46.6428 18.8356 46.6428 20.0242C46.6428 22.4799 44.654 24.4687 42.1982 24.4687H36.6428V23.3575H42.1982C43.087 23.3575 43.9315 23.013 44.5539 22.3798C45.187 21.7574 45.5316 20.9133 45.5316 20.0242C45.5316 18.1908 44.0316 16.6908 42.1982 16.6908H4.97653ZM3.86529 24.4687C3.55428 24.4687 3.30986 24.2243 3.30986 23.9133C3.30986 23.6023 3.55428 23.3579 3.86529 23.3579H26.6434V24.4691H7.75481L3.86529 24.4687ZM3.30986 30.0242C3.30986 27.5685 5.29872 25.5796 7.75443 25.5796H26.643V26.6908H7.75443C6.86567 26.6908 6.0212 27.0353 5.39881 27.6686C4.77641 28.2798 4.4211 29.1467 4.4211 30.0242C4.4211 31.8575 5.9211 33.3575 7.75443 33.3575H46.0878C46.3988 33.3575 46.6432 33.6019 46.6432 33.9129C46.6432 34.224 46.3988 34.4684 46.0878 34.4684H7.75443C6.55424 34.4684 5.44339 34.0019 4.61005 33.1573C3.77635 32.3351 3.30986 31.2243 3.30986 30.0242ZM7.19862 43.3575H42.1986C44.032 43.3575 45.532 41.8575 45.532 40.0242C45.532 38.1908 44.032 36.6908 42.1986 36.6908H3.86529C3.55428 36.6908 3.30986 36.4464 3.30986 36.1354C3.30986 35.8244 3.55428 35.58 3.86529 35.58H42.1986C44.6543 35.58 46.6432 37.5688 46.6432 40.0246C46.6432 42.4803 44.6543 44.4691 42.1986 44.4691L3.86529 44.4688C3.55428 44.4688 3.30986 44.2243 3.30986 43.9133C3.30986 43.6023 3.55428 43.3579 3.86529 43.3579H4.97653L7.19862 43.3575ZM5.97653 37.8021H42.1984C43.4205 37.8021 44.4205 38.8021 44.4205 40.0242C44.4205 41.2463 43.4205 42.2463 42.1984 42.2463H5.97653C6.23211 41.635 6.36529 40.8575 6.36529 40.0242C6.36529 39.1908 6.22095 38.4129 5.97653 37.8021Z" fill="black"/>
<path d="M12.7542 40.5791H42.7542C43.0652 40.5791 43.3096 40.3346 43.3096 40.0236C43.3096 39.7126 43.0652 39.4682 42.7542 39.4682H12.7542C12.4431 39.4682 12.1987 39.7126 12.1987 40.0236C12.1984 40.3346 12.4428 40.5791 12.7542 40.5791Z" fill="black"/>
<path d="M9.42103 40.5791H10.5323C10.8433 40.5791 11.0877 40.3346 11.0877 40.0236C11.0877 39.7126 10.8433 39.4682 10.5319 39.4682H9.42066C9.10965 39.4682 8.86523 39.7126 8.86523 40.0236C8.86523 40.3346 9.10965 40.5791 9.42103 40.5791Z" fill="black"/>
<path d="M23.8647 29.4686H7.19801C6.887 29.4686 6.64258 29.713 6.64258 30.024C6.64258 30.335 6.887 30.5794 7.19801 30.5794H23.8647C24.1757 30.5794 24.4201 30.335 24.4201 30.024C24.4205 29.713 24.1761 29.4686 23.8647 29.4686Z" fill="black"/>
<path d="M40.5314 29.4686H39.4202C39.1092 29.4686 38.8647 29.713 38.8647 30.024C38.8647 30.335 39.1092 30.5794 39.4205 30.5794H40.5318C40.8428 30.5794 41.0872 30.335 41.0872 30.024C41.0872 29.713 40.8428 29.4686 40.5314 29.4686Z" fill="black"/>
<path d="M9.42103 20.5791H10.5323C10.8433 20.5791 11.0877 20.3346 11.0877 20.0236C11.0877 19.7126 10.8433 19.4682 10.5319 19.4682H9.42066C9.10965 19.4682 8.86523 19.7126 8.86523 20.0236C8.86523 20.3346 9.10965 20.5791 9.42103 20.5791Z" fill="black"/>
<path d="M37.198 9.46857H7.19801C6.887 9.46857 6.64258 9.71299 6.64258 10.024C6.64258 10.335 6.887 10.5794 7.19801 10.5794H37.198C37.509 10.5794 37.7534 10.335 37.7534 10.024C37.7538 9.71299 37.5094 9.46857 37.198 9.46857Z" fill="black"/>
<path d="M40.5314 9.46857H39.4202C39.1092 9.46857 38.8647 9.71299 38.8647 10.024C38.8647 10.335 39.1092 10.5794 39.4205 10.5794H40.5318C40.8428 10.5794 41.0872 10.335 41.0872 10.024C41.0872 9.71299 40.8428 9.46857 40.5314 9.46857Z" fill="black"/>
<path d="M33.8648 26.6904C34.1758 26.6904 34.4202 26.446 34.4202 26.135V21.6904C34.4202 21.3794 34.1758 21.135 33.8648 21.135C33.5537 21.135 33.3093 21.3794 33.3093 21.6904V26.135C33.3093 26.446 33.5537 26.6904 33.8648 26.6904Z" fill="black"/>
</svg>
