<svg width="75" height="75" viewBox="0 0 75 75" fill="none" xmlns="http://www.w3.org/2000/svg">
<path d="M30.655 64.122C30.0611 64.7235 29.8714 65.6158 30.1691 66.4068C30.4668 67.1978 31.1982 67.7441 32.0414 67.8046H32.1064C32.8393 67.8363 33.5382 67.4948 33.9643 66.8979C34.3897 66.3002 34.4841 65.5281 34.2152 64.8458C33.9462 64.1636 33.3508 63.6634 32.6315 63.5176C31.913 63.371 31.1688 63.5984 30.655 64.122Z" fill="black"/>
<path d="M63.9624 38.9922C63.1494 38.1377 62.0592 37.6005 60.8866 37.4758C61.2191 36.8283 61.4004 36.1135 61.417 35.3851C61.451 34.1294 60.9878 32.9106 60.128 31.995C59.3339 31.1397 58.2474 30.6146 57.0847 30.5216C57.4481 29.6157 57.5463 28.6252 57.3658 27.6655C57.1852 26.7059 56.7341 25.8182 56.0662 25.1058C55.2963 24.2852 54.2748 23.7442 53.1633 23.5682L61.9263 15.2494C62.8179 14.3919 63.337 13.2193 63.3717 11.9831C63.4057 10.747 62.9531 9.54713 62.1107 8.6421C61.266 7.7392 60.0964 7.20879 58.861 7.16875C57.6166 7.13475 56.4099 7.59413 55.5034 8.44717L34.4995 28.3234C33.8331 25.0895 32.3068 22.0961 30.0801 19.6578C28.158 17.2597 25.342 15.7462 22.2813 15.4659C21.6202 15.3919 20.9523 15.5037 20.3508 15.7893C19.7502 16.0742 19.2409 16.5215 18.8805 17.0798C18.366 17.991 18.1015 19.0216 18.1129 20.0672C18.1242 21.1137 18.4113 22.1382 18.9455 23.0373C21.4639 27.5019 22.5352 32.6375 22.0109 37.7359C21.8242 39.5039 21.4351 41.2448 20.8518 42.9243C20.4446 42.7596 20.0124 42.6644 19.5734 42.6425C18.6342 42.616 17.723 42.9628 17.0392 43.6066L10.9841 49.3043C10.2988 49.9465 9.89755 50.8343 9.86659 51.7727C9.83636 52.7112 10.1794 53.6231 10.8216 54.3083L29.1274 73.8054C29.7727 74.4884 30.662 74.8882 31.6011 74.9191C32.5403 74.9493 33.4537 74.6078 34.1421 73.9679L40.1972 68.2702C40.8757 67.6265 41.2664 66.7364 41.2807 65.8009C41.3019 65.1874 41.1636 64.5792 40.8795 64.0352L43.7393 62.4969C47.5058 60.4773 50.9911 57.9717 54.1049 55.0448L63.702 46.022C64.6653 45.1184 65.2305 43.8694 65.2735 42.5487C65.3158 41.2288 64.8323 39.9458 63.9294 38.9818L63.9624 38.9922ZM38.8212 66.8182L32.7557 72.5044V72.5052C32.4618 72.7878 32.0666 72.9404 31.6586 72.9275C31.2513 72.9154 30.866 72.7394 30.5895 72.4402L12.2837 52.9431C12.0041 52.6477 11.853 52.2533 11.8651 51.846C11.8779 51.4395 12.0517 51.0542 12.3486 50.7769L18.4256 45.0574C18.7195 44.7854 19.1079 44.638 19.5083 44.6456C19.9209 44.6532 20.313 44.8292 20.5918 45.1337L35.7348 61.3049L38.887 64.6625H38.8862C39.1643 64.9542 39.3162 65.3433 39.3086 65.746C39.2942 66.154 39.1189 66.5394 38.8212 66.8182ZM63.2893 42.5009C63.2674 43.2875 62.9319 44.0325 62.3577 44.5696L52.75 53.5924C49.7662 56.3994 46.4268 58.8029 42.8173 60.7416L39.5676 62.4635L31.6825 54.0472L22.5076 44.2991C23.2798 42.3058 23.783 40.2182 24.0029 38.0921C24.5839 32.5629 23.4498 26.9884 20.7532 22.1263C20.0278 20.9454 19.9704 19.472 20.6013 18.2376C20.9277 17.717 21.5321 17.4404 22.1396 17.5334C24.7025 17.748 27.0591 19.0241 28.6383 21.0543C32.8626 25.8098 32.7758 30.4127 32.7758 30.4564L32.7765 30.4556C32.7576 30.8636 32.9896 31.2407 33.3613 31.4092C33.727 31.5671 34.1516 31.4953 34.4448 31.2248L56.8433 9.94047C57.3608 9.45389 58.0507 9.19246 58.7609 9.21438C59.4681 9.23176 60.1398 9.53246 60.6241 10.0485C61.6328 11.1184 61.589 12.8017 60.5266 13.818L46.4452 27.2276C46.0954 27.6175 46.1014 28.2099 46.4603 28.5914C46.8192 28.973 47.4108 29.016 47.8211 28.6904L50.2797 26.3829C51.0783 25.6318 52.2178 25.3644 53.2671 25.6817C54.3166 25.9983 55.1182 26.8506 55.3683 27.9181C55.6191 28.9857 55.2814 30.1055 54.482 30.8564L51.2323 33.9217C50.8258 34.3018 50.8039 34.9395 51.184 35.346C51.564 35.7525 52.2017 35.7744 52.6082 35.3943L54.8832 33.2282C55.4083 32.734 56.1087 32.4688 56.8302 32.4907C57.5518 32.5134 58.2341 32.8217 58.7282 33.3476C59.2223 33.8711 59.4868 34.57 59.4649 35.2893C59.4422 36.0086 59.1347 36.6901 58.6088 37.182L56.9625 38.7309L55.2617 40.3229C54.8711 40.7196 54.8711 41.3565 55.2617 41.7532C55.6546 42.1423 56.2885 42.1423 56.6806 41.7532L58.392 40.1499C58.967 39.6127 59.7316 39.3255 60.5181 39.3512C61.3039 39.3777 62.0481 39.7147 62.5854 40.2889C63.1233 40.8631 63.4112 41.6277 63.3855 42.4134L63.2893 42.5009Z" fill="black"/>
<path d="M29.5059 9.94206C29.6963 10.1309 29.9532 10.236 30.2214 10.2345C30.4874 10.2284 30.742 10.1241 30.9362 9.94206C31.3253 9.54918 31.3253 8.91601 30.9362 8.52313L27.4153 4.98115C27.0186 4.60111 26.3907 4.60941 26.0039 4.99929C25.617 5.38916 25.614 6.01702 25.9963 6.41068L29.5059 9.94206Z" fill="black"/>
<path d="M37.4246 6.99429C37.9807 6.99429 38.4318 6.54398 38.4318 5.98713V1.0262C38.4318 0.470107 37.9807 0.019043 37.4246 0.019043C36.8685 0.019043 36.4175 0.470107 36.4175 1.0262V5.98713C36.4175 6.54398 36.8685 6.99429 37.4246 6.99429Z" fill="black"/>
<path d="M44.8985 10.1801C45.166 10.1816 45.4236 10.0766 45.6132 9.88767L49.1229 6.37799C49.3587 6.2027 49.5052 5.93297 49.5256 5.63981C49.5453 5.34666 49.4365 5.05954 49.2272 4.85328C49.0179 4.64701 48.7293 4.54273 48.4361 4.56691C48.1437 4.59185 47.8762 4.74296 47.704 4.98096L44.1943 8.46858C44.0016 8.65444 43.8928 8.91059 43.8928 9.17805C43.8928 9.44552 44.0016 9.70165 44.1943 9.88753C44.3809 10.0749 44.634 10.1801 44.8985 10.1801Z" fill="black"/>
</svg>
